<mxfile host="app.diagrams.net" agent="Mozilla/5.0 (Windows NT 10.0; Win64; x64) AppleWebKit/537.36 (KHTML, like Gecko) Chrome/127.0.0.0 Safari/537.36" version="24.7.7">
  <diagram id="C5RBs43oDa-KdzZeNtuy" name="Page-1">
    <mxGraphModel dx="913" dy="454" grid="1" gridSize="10" guides="1" tooltips="1" connect="1" arrows="1" fold="1" page="1" pageScale="1" pageWidth="827" pageHeight="1169" math="0" shadow="0">
      <root>
        <mxCell id="WIyWlLk6GJQsqaUBKTNV-0" />
        <mxCell id="WIyWlLk6GJQsqaUBKTNV-1" parent="WIyWlLk6GJQsqaUBKTNV-0" />
        <mxCell id="gb-yVQ4lIrqO1wdNZz7q-26" value="User" style="swimlane;html=1;strokeColor=black;fillColor=white;strokeWidth=2;shadow=0;whiteSpace=wrap;rounded=0;" vertex="1" connectable="0" parent="WIyWlLk6GJQsqaUBKTNV-1">
          <mxGeometry x="120" y="60" width="160" height="220" as="geometry" />
        </mxCell>
        <mxCell id="gb-yVQ4lIrqO1wdNZz7q-27" value="UserId: int&#xa;Username: string&#xa;PasswordHash: string&#xa;Email: string&#xa;PhoneNumber: string&#xa;FirstName: string&#xa;LastName: string&#xa;Role: string&#xa;CreatedAt: DateTime&#xa;UpdatedAt: DateTime" style="text;html=1;strokeColor=none;fillColor=none;align=center;verticalAlign=middle;whiteSpace=wrap;rounded=0;" vertex="1" connectable="0" parent="gb-yVQ4lIrqO1wdNZz7q-26">
          <mxGeometry x="10" y="10" width="140" height="200" as="geometry" />
        </mxCell>
        <mxCell id="gb-yVQ4lIrqO1wdNZz7q-28" value="Property" style="swimlane;html=1;strokeColor=black;fillColor=white;strokeWidth=2;shadow=0;whiteSpace=wrap;rounded=0;" vertex="1" connectable="0" parent="WIyWlLk6GJQsqaUBKTNV-1">
          <mxGeometry x="320" y="60" width="160" height="300" as="geometry" />
        </mxCell>
        <mxCell id="gb-yVQ4lIrqO1wdNZz7q-29" value="PropertyId: int&#xa;HostId: int&#xa;Title: string&#xa;Description: string&#xa;Address: string&#xa;City: string&#xa;State: string&#xa;Country: string&#xa;PostalCode: string&#xa;Latitude: double&#xa;Longitude: double&#xa;PricePerNight: decimal&#xa;NumberOfBedrooms: int&#xa;NumberOfBathrooms: int&#xa;Amenities: string&#xa;CreatedAt: DateTime&#xa;UpdatedAt: DateTime" style="text;html=1;strokeColor=none;fillColor=none;align=center;verticalAlign=middle;whiteSpace=wrap;rounded=0;" vertex="1" connectable="0" parent="gb-yVQ4lIrqO1wdNZz7q-28">
          <mxGeometry x="10" y="40" width="140" height="240" as="geometry" />
        </mxCell>
        <mxCell id="gb-yVQ4lIrqO1wdNZz7q-30" value="Booking" style="swimlane;html=1;strokeColor=black;fillColor=white;strokeWidth=2;shadow=0;whiteSpace=wrap;rounded=0;" vertex="1" connectable="0" parent="WIyWlLk6GJQsqaUBKTNV-1">
          <mxGeometry x="520" y="60" width="160" height="200" as="geometry" />
        </mxCell>
        <mxCell id="gb-yVQ4lIrqO1wdNZz7q-31" value="BookingId: int&#xa;GuestId: int&#xa;PropertyId: int&#xa;CheckInDate: DateTime&#xa;CheckOutDate: DateTime&#xa;TotalPrice: decimal&#xa;BookingStatus: string&#xa;CreatedAt: DateTime&#xa;UpdatedAt: DateTime" style="text;html=1;strokeColor=none;fillColor=none;align=center;verticalAlign=middle;whiteSpace=wrap;rounded=0;" vertex="1" connectable="0" parent="gb-yVQ4lIrqO1wdNZz7q-30">
          <mxGeometry x="10" y="10" width="140" height="180" as="geometry" />
        </mxCell>
        <mxCell id="gb-yVQ4lIrqO1wdNZz7q-32" value="Review" style="swimlane;html=1;strokeColor=black;fillColor=white;strokeWidth=2;shadow=0;whiteSpace=wrap;rounded=0;" vertex="1" connectable="0" parent="WIyWlLk6GJQsqaUBKTNV-1">
          <mxGeometry x="720" y="60" width="160" height="160" as="geometry" />
        </mxCell>
        <mxCell id="gb-yVQ4lIrqO1wdNZz7q-33" value="ReviewId: int&#xa;PropertyId: int&#xa;GuestId: int&#xa;Rating: int&#xa;Comment: string&#xa;CreatedAt: DateTime" style="text;html=1;strokeColor=none;fillColor=none;align=center;verticalAlign=middle;whiteSpace=wrap;rounded=0;" vertex="1" connectable="0" parent="gb-yVQ4lIrqO1wdNZz7q-32">
          <mxGeometry x="10" y="10" width="140" height="140" as="geometry" />
        </mxCell>
        <mxCell id="gb-yVQ4lIrqO1wdNZz7q-34" value="Payment" style="swimlane;html=1;strokeColor=black;fillColor=white;strokeWidth=2;shadow=0;whiteSpace=wrap;rounded=0;" vertex="1" connectable="0" parent="WIyWlLk6GJQsqaUBKTNV-1">
          <mxGeometry x="920" y="60" width="160" height="160" as="geometry" />
        </mxCell>
        <mxCell id="gb-yVQ4lIrqO1wdNZz7q-35" value="PaymentId: int&#xa;BookingId: int&#xa;Amount: decimal&#xa;PaymentDate: DateTime&#xa;PaymentMethod: string&#xa;PaymentStatus: string" style="text;html=1;strokeColor=none;fillColor=none;align=center;verticalAlign=middle;whiteSpace=wrap;rounded=0;" vertex="1" connectable="0" parent="gb-yVQ4lIrqO1wdNZz7q-34">
          <mxGeometry x="10" y="10" width="140" height="140" as="geometry" />
        </mxCell>
        <mxCell id="gb-yVQ4lIrqO1wdNZz7q-36" value="Message" style="swimlane;html=1;strokeColor=black;fillColor=white;strokeWidth=2;shadow=0;whiteSpace=wrap;rounded=0;" vertex="1" connectable="0" parent="WIyWlLk6GJQsqaUBKTNV-1">
          <mxGeometry x="1120" y="60" width="160" height="200" as="geometry" />
        </mxCell>
        <mxCell id="gb-yVQ4lIrqO1wdNZz7q-37" value="MessageId: int&#xa;SenderId: int&#xa;ReceiverId: int&#xa;Content: string&#xa;SentAt: DateTime" style="text;html=1;strokeColor=none;fillColor=none;align=center;verticalAlign=middle;whiteSpace=wrap;rounded=0;" vertex="1" connectable="0" parent="gb-yVQ4lIrqO1wdNZz7q-36">
          <mxGeometry x="10" y="10" width="140" height="180" as="geometry" />
        </mxCell>
        <mxCell id="gb-yVQ4lIrqO1wdNZz7q-38" value="PropertyImage" style="swimlane;html=1;strokeColor=black;fillColor=white;strokeWidth=2;shadow=0;whiteSpace=wrap;rounded=0;" vertex="1" connectable="0" parent="WIyWlLk6GJQsqaUBKTNV-1">
          <mxGeometry x="1320" y="60" width="160" height="160" as="geometry" />
        </mxCell>
        <mxCell id="gb-yVQ4lIrqO1wdNZz7q-39" value="ImageId: int&#xa;PropertyId: int&#xa;ImageUrl: string&#xa;IsMainImage: bool" style="text;html=1;strokeColor=none;fillColor=none;align=center;verticalAlign=middle;whiteSpace=wrap;rounded=0;" vertex="1" connectable="0" parent="gb-yVQ4lIrqO1wdNZz7q-38">
          <mxGeometry x="10" y="10" width="140" height="140" as="geometry" />
        </mxCell>
        <mxCell id="gb-yVQ4lIrqO1wdNZz7q-40" value="Wishlist" style="swimlane;html=1;strokeColor=black;fillColor=white;strokeWidth=2;shadow=0;whiteSpace=wrap;rounded=0;" vertex="1" connectable="0" parent="WIyWlLk6GJQsqaUBKTNV-1">
          <mxGeometry x="1520" y="60" width="160" height="160" as="geometry" />
        </mxCell>
        <mxCell id="gb-yVQ4lIrqO1wdNZz7q-41" value="WishlistId: int&#xa;UserId: int&#xa;PropertyId: int&#xa;CreatedAt: DateTime" style="text;html=1;strokeColor=none;fillColor=none;align=center;verticalAlign=middle;whiteSpace=wrap;rounded=0;" vertex="1" connectable="0" parent="gb-yVQ4lIrqO1wdNZz7q-40">
          <mxGeometry x="10" y="10" width="140" height="140" as="geometry" />
        </mxCell>
      </root>
    </mxGraphModel>
  </diagram>
</mxfile>
